<svg id="图层_1" data-name="图层 1" xmlns="http://www.w3.org/2000/svg" viewBox="0 0 84.04 105.18"><defs><style>.cls-1,.cls-2{fill:#2349b6;}.cls-2{stroke:#2349b6;stroke-miterlimit:10;stroke-width:0.61px;}</style></defs><title>cert-cka</title><path class="cls-1" d="M94.25,2944.87H150.1v38.66a12,12,0,0,1,2.5,1.08,9.47,9.47,0,0,1,4.7-1.41h0.2v-38.34a7.4,7.4,0,0,0-7.4-7.4H94.25a7.4,7.4,0,0,0-7.4,7.4v82.43a7.4,7.4,0,0,0,7.4,7.4h44.8v-7.4H94.25v-82.42Z" transform="translate(-86.85 -2937.46)"/><path class="cls-1" d="M168.89,3001.83a4.81,4.81,0,0,1-1.31-1.47,4.86,4.86,0,0,1,.19-2.05c0.26-1.23.56-2.62-.2-3.67s-2.19-1.19-3.45-1.32a5.24,5.24,0,0,1-2-.44,5,5,0,0,1-1-1.74c-0.51-1.16-1.09-2.48-2.35-2.89a2.19,2.19,0,0,0-.73-0.11,5.81,5.81,0,0,0-2.77,1.05,4.93,4.93,0,0,1-1.93.83,4.9,4.9,0,0,1-1.94-.83,5.81,5.81,0,0,0-2.77-1.05,2.19,2.19,0,0,0-.73.11c-1.26.41-1.84,1.73-2.35,2.89a5,5,0,0,1-1,1.74,5.2,5.2,0,0,1-2,.44c-1.26.13-2.68,0.27-3.45,1.32s-0.46,2.44-.2,3.67a2.51,2.51,0,0,1-.93,3.42l-0.19.1c-0.95.85-2,1.82-2,3.16s1.09,2.3,2,3.16a4.85,4.85,0,0,1,1.32,1.46,4.93,4.93,0,0,1-.2,2.06c-0.26,1.23-.56,2.62.2,3.66s2.19,1.2,3.45,1.33a4.85,4.85,0,0,1,2,.44,5,5,0,0,1,1,1.73c0.51,1.17,1.09,2.49,2.35,2.9a2.47,2.47,0,0,0,.73.11,5.92,5.92,0,0,0,2.77-1.05,4.94,4.94,0,0,1,1.94-.84,5,5,0,0,1,1.93.84,5.92,5.92,0,0,0,2.77,1.05,2.47,2.47,0,0,0,.73-0.11c1.26-.41,1.84-1.73,2.35-2.9a5,5,0,0,1,1-1.73,4.89,4.89,0,0,1,2-.44c1.26-.13,2.68-0.28,3.45-1.33s0.46-2.43.2-3.66a4.74,4.74,0,0,1-.19-2.06,4.8,4.8,0,0,1,1.31-1.46c1-.86,2-1.82,2-3.16S169.85,3002.68,168.89,3001.83Zm-15.55,9.56a6.41,6.41,0,1,1,6.4-6.42s0,0,0,0a6.41,6.41,0,0,1-6.4,6.4h0Z" transform="translate(-86.85 -2937.46)"/><path class="cls-1" d="M159.35,3023.51a4.09,4.09,0,0,1-1.31.21,7.49,7.49,0,0,1-3.71-1.31c-0.29-.17-0.73-0.42-1-0.54-0.27.12-.71,0.37-1,0.54a7.49,7.49,0,0,1-3.71,1.31h0a4.13,4.13,0,0,1-1.31-.21,4.77,4.77,0,0,1-2.6-2.15v20.27a1,1,0,0,0,1.7.74l6.92-6.36,6.91,6.36a1,1,0,0,0,1.7-.74v-20.28A4.87,4.87,0,0,1,159.35,3023.51Z" transform="translate(-86.85 -2937.46)"/><path class="cls-2" d="M100.67,2976.45a10.44,10.44,0,0,1,0-11.81,6.15,6.15,0,0,1,5-2.17,6.47,6.47,0,0,1,4.17,1.39,5.61,5.61,0,0,1,2.07,3.62h-2a4.19,4.19,0,0,0-1.54-2.36,4.45,4.45,0,0,0-2.75-.87,4.18,4.18,0,0,0-3.52,1.7,8.74,8.74,0,0,0,0,9.19,4.18,4.18,0,0,0,3.52,1.7,4.9,4.9,0,0,0,2.77-.77,3.68,3.68,0,0,0,1.51-2.11h2a5.23,5.23,0,0,1-2.08,3.39,6.74,6.74,0,0,1-4.15,1.27A6.19,6.19,0,0,1,100.67,2976.45Z" transform="translate(-86.85 -2937.46)"/><path class="cls-2" d="M119.21,2978.25h-1.92v-15.41h1.92v7.49h0.17l6.75-7.49h2.42l-6.17,6.65,6.73,8.76h-2.49l-5.56-7.42-1.85,2v5.42Z" transform="translate(-86.85 -2937.46)"/><path class="cls-2" d="M143.91,2978.25c-0.32-.89-0.58-1.62-0.78-2.2l-0.77-2.21h-6.13l-1.55,4.41h-2l5.68-15.41h1.9l5.69,15.41h-2Zm-4.7-12.92c-0.33.92-.61,1.73-0.85,2.41l-0.72,2.05-0.85,2.42h5l-2.41-6.88h-0.17Z" transform="translate(-86.85 -2937.46)"/></svg>