<svg id="图层_1" data-name="图层 1" xmlns="http://www.w3.org/2000/svg" viewBox="0 0 20.23 13.49"><defs><style>.cls-1{fill:#2349b6;}</style></defs><title>mail</title><path class="cls-1" d="M261.73,600.35l9.44-7.87H252.28Z" transform="translate(-251.63 -592.48)"/><path class="cls-1" d="M271.86,593.29a0.7,0.7,0,0,0,0-.25l-6.69,5.58,6.7,6.71a0.78,0.78,0,0,0,0-.21Z" transform="translate(-251.63 -592.48)"/><path class="cls-1" d="M251.64,593a0.7,0.7,0,0,0,0,.25v11.83a0.78,0.78,0,0,0,0,.21l6.71-6.71Z" transform="translate(-251.63 -592.48)"/><path class="cls-1" d="M264.47,599.16L262,601.22a0.41,0.41,0,0,1-.27.1,0.38,0.38,0,0,1-.27-0.1L259,599.16l-6.76,6.76a0.65,0.65,0,0,0,.2,0H271a0.8,0.8,0,0,0,.21,0Z" transform="translate(-251.63 -592.48)"/></svg>