<svg id="图层_1" data-name="图层 1" xmlns="http://www.w3.org/2000/svg" viewBox="0 0 17.68 19.99"><defs><style>.cls-1{fill:#2349b6;}</style></defs><title>qq</title><path class="cls-1" d="M252.41,640.26a4.87,4.87,0,0,1,1.27-1.55,0.86,0.86,0,0,0,.21-0.84c0.1-1.3-.17-2.64.39-3.89a2.43,2.43,0,0,1,1.08-1.65l0.58-.58a2.74,2.74,0,0,1,2-1.26l0.55-.2a3.83,3.83,0,0,1,2-.33,7.53,7.53,0,0,1,5.59,2.8,6.08,6.08,0,0,1,1.19,4.32,2.49,2.49,0,0,0,.84,2.27,3.66,3.66,0,0,1,1,2.4c0,0.6.14,1.2,0.11,1.81a5.39,5.39,0,0,1-.08,1.45c-0.19.91-.77,1.12-1.54,0.59l-0.29-.23a0.41,0.41,0,0,0-.64,0,0.47,0.47,0,0,0,0,.66c0.21,0.23.49,0.37,0.68,0.61a1.47,1.47,0,0,1,.23,1.91c-2.11,1.75-3.65,1.82-5.89.27a2.32,2.32,0,0,0-2.55.08c-1.81,1.28-3.82,1.37-5.23.22a1.43,1.43,0,0,1-.67-1,2.83,2.83,0,0,1,.33-1.24,2.34,2.34,0,0,1,.65-0.75,0.45,0.45,0,0,0,.12-0.76,0.4,0.4,0,0,0-.69,0,1.35,1.35,0,0,1-.9.39c-0.56,0-.6-0.55-0.83-0.89C251.3,643.42,251.47,641.19,252.41,640.26Z" transform="translate(-251.55 -629.94)"/></svg>