<svg id="图层_1" data-name="图层 1" xmlns="http://www.w3.org/2000/svg" viewBox="0 0 21.42 21.42"><defs><style>.cls-1{fill:#2349b6;}</style></defs><title>site</title><path class="cls-1" d="M262.08,563.34h0a0.11,0.11,0,0,1,0,0v0Zm4.22,4.49h-0.1s0,0.06.1,0h0Zm-4-13.39A10.71,10.71,0,1,0,273,565.16v0a10.7,10.7,0,0,0-10.7-10.69h0Zm6.84,4.18a1.48,1.48,0,0,0-.93.22,1.18,1.18,0,0,1-.35.23,1.48,1.48,0,0,1-.42,0c-0.48.17-.41,1.21-1,1a1.37,1.37,0,0,1-.66-0.66c-0.15-.23-0.38-0.38-0.21-0.63h-0.23a1.47,1.47,0,0,1,.5-0.32c0.14-.29-0.39-0.32-0.54-0.36,0.18-.2.27,0.07,0.45,0s-0.09-.27-0.19-0.3-0.65.17-.3-0.14L263.9,557c-0.07.31,0.58,0.49,0.8,0.6a0.36,0.36,0,0,1-.39.26c-0.16,0-.08-0.29-0.3-0.27-0.15.36,0.33,0.26,0.37,0.48s-0.18.14-.27,0.14-0.19-.18-0.19,0a1.32,1.32,0,0,0,.28.25,1.1,1.1,0,0,1-.75-0.27,1.16,1.16,0,0,0-.84-0.19,2.39,2.39,0,0,0,.37-0.15,1.82,1.82,0,0,0,.27-0.29c0.06-.19,0-0.18-0.19-0.3a1.68,1.68,0,0,0-.56-0.36c-0.72-.14-0.22.65-0.77,0.76h-0.44a0.82,0.82,0,0,0-.13.31,4.69,4.69,0,0,1-.42.23,1.87,1.87,0,0,0-.51.46c-0.29.55,0.65,0.72,1,.88a2.78,2.78,0,0,1,.72.29c0.09,0.12-.11.32,0.14,0.44a0.32,0.32,0,0,0,.31,0c0.11-.12,0-0.15-0.08-0.29s0-.17.18-0.27,0.21-.22.11-0.55a1.15,1.15,0,0,1-.07-0.7,1.6,1.6,0,0,1,.8.1,1,1,0,0,1,.38.38,0.44,0.44,0,0,0,.3.2,0.82,0.82,0,0,0,.21-0.26c0.28-.2.36,0.07,0.47,0.34a1.17,1.17,0,0,0,.4.5,1,1,0,0,1,.43.51,0.92,0.92,0,0,1-.58.31c-0.43.14-1.24-.22-1.32,0.46a1,1,0,0,1,.78-0.26c0.14,0.19,0,.2,0,0.28,0.08,0.25.27,0.17,0.47,0.13h0a0.55,0.55,0,0,0,.37-0.34,1.29,1.29,0,0,1,.16-0.31c0.2-.18.23-0.06,0.35,0.08s0.34,0.48.23,0.46a1.31,1.31,0,0,0-1,.13,3.2,3.2,0,0,1-.53.34,0.89,0.89,0,0,1-.37,0,3.47,3.47,0,0,0,.36-0.25,0.71,0.71,0,0,0-.61.24,3.2,3.2,0,0,0-.4.42,2,2,0,0,1-.28.16c-0.07.08-.08,0.22-0.15,0.3a0.68,0.68,0,0,0-.21.1,2.79,2.79,0,0,1,0,.29c-0.06.08-.32,0.27-0.42,0.37h0a1.94,1.94,0,0,0-.32.32,3.09,3.09,0,0,1,.12.71c-0.11.33-.32-0.18-0.41-0.31-0.29-.44-0.89-0.14-1.29-0.11a0.9,0.9,0,0,0-.7,1.27,0.62,0.62,0,0,0,.7.3,5.15,5.15,0,0,1,.59-0.43c0.46,0,0,.44,0,0.61s0.06,0.17.22,0.21,0.29,0,.39,0,0.06,0.27.15,0.2a0.41,0.41,0,0,0,0,.58l0,0a2,2,0,0,0,.65.07c0.39,0.1.2,0,.55-0.24s0.27,0,.43,0a0.84,0.84,0,0,1,.36-0.11,2.48,2.48,0,0,0,.38.17h0.21a1.84,1.84,0,0,1,.84.44,1.51,1.51,0,0,0,.6.19,0.64,0.64,0,0,1,.49.55,1.64,1.64,0,0,0-.18.34,2.13,2.13,0,0,0,.46,0s-0.25.19-.25,0.11,0.15,0.13.19,0.15c0.12-.37.3-0.13,0.53,0a4.4,4.4,0,0,0,.63.13,1.71,1.71,0,0,1,.69.3,0.52,0.52,0,0,1-.07.62,2.37,2.37,0,0,0-.47.58,4.22,4.22,0,0,0-.06.64,0.47,0.47,0,0,1-.3.4c-0.2.19,0,.13-0.24,0.23a0.93,0.93,0,0,0-.59.33v0a1.81,1.81,0,0,0-.14.35,1.52,1.52,0,0,1-.32.4,2.75,2.75,0,0,1-.52.62s-0.39.06-.41,0,0,0,.09.1a0.62,0.62,0,0,1-.8.58c0,0.25-.18.2-0.28,0.33a2.23,2.23,0,0,0-.13.39,2.91,2.91,0,0,0-.22.36,1.25,1.25,0,0,0,.13.17,9.5,9.5,0,0,1-1.07.15c0.06-.08.08-0.16-0.13-0.17,0-.16.19-0.25,0.25-0.4s0-.1,0-0.17a0.32,0.32,0,0,0,0-.34,1.36,1.36,0,0,1,.16-1,12.77,12.77,0,0,0,.2-1.42,2.37,2.37,0,0,0,0-.88,2,2,0,0,0-.63-0.56,3.58,3.58,0,0,1-.55-0.73,3.78,3.78,0,0,1-.26-0.43c-0.16-.32,0-0.13,0-0.32a2.53,2.53,0,0,1,0-.54c0.08-.21.28-0.34,0.35-0.56a0.38,0.38,0,0,0-.18-0.49h-0.34a1.13,1.13,0,0,1-.45-0.23c-0.17-.13-0.23-0.33-0.41-0.45a2.26,2.26,0,0,0-.42-0.09c-0.17-.09-0.27-0.26-0.4-0.32a1.55,1.55,0,0,0-.53,0,2.79,2.79,0,0,1-.63-0.3,1.14,1.14,0,0,1-.69-0.67,2.55,2.55,0,0,0-.49-0.69,1,1,0,0,0-.59-0.54l0.09,0.29a4.86,4.86,0,0,0,.42.59c0.2,0.29.11,0.34-.09,0.07a9.62,9.62,0,0,1-.71-1,1,1,0,0,0-.19-0.33c-0.13-.12-0.28-0.18-0.4-0.29a1.66,1.66,0,0,1-.48-1.5,1.78,1.78,0,0,0,.06-0.51,0.74,0.74,0,0,0-.22-0.38,1.57,1.57,0,0,1-.13-0.2,1.71,1.71,0,0,0-.34-0.47c-0.09-.08-0.33-0.26-0.55-0.42a9.41,9.41,0,0,1,3.82-2.85,0.51,0.51,0,0,0,.09.22,0.62,0.62,0,0,0,.49.22c0,0.28-.36.28-0.58,0.25a0.83,0.83,0,0,0-.77.11c0.13,0.08.47,0.37,0.43,0.06a4.57,4.57,0,0,1,.74,0,2,2,0,0,0,.53.08,0.59,0.59,0,0,0,.12-0.27c0-.06-0.15,0-0.22,0,0.16-.21.33,0,0.54,0-0.23.14-.1,0.48,0.13,0.21s0-.39-0.28-0.52c0.23-.3.38-0.33,0.6,0,0-.21.21-0.12,0.38-0.11h-0.23c0.17-.28.06-0.34,0.31-0.43a1.71,1.71,0,0,0,.85-0.2,5.16,5.16,0,0,0-1.25.28c-0.16.08-.34,0.33-0.5,0.17s0.11-.44.25-0.52h0a9.92,9.92,0,0,1,2-.21,11.17,11.17,0,0,1,1.29.09c-0.15.08,0,.13-0.15,0.21a4.18,4.18,0,0,1-.8.37c0.3,0,1,.29,1.19-0.14l-0.3,0a2.63,2.63,0,0,1,.61-0.29,9.4,9.4,0,0,1,5,2.77Zm1.73,3.76a0.08,0.08,0,0,0,.07-0.08,0.18,0.18,0,0,1,.08-0.17,1.32,1.32,0,0,0,.16-0.12V562a9.27,9.27,0,0,1,.38,1.37h0a0.65,0.65,0,0,1-.2,0,0.46,0.46,0,0,1-.27-0.13,1.79,1.79,0,0,1-.23-0.25,0.54,0.54,0,0,1,0-.31,0.47,0.47,0,0,1,0-.24h0Zm0.12,4.91a3.23,3.23,0,0,1-.53-0.58,1.19,1.19,0,0,1,0-.7,1.69,1.69,0,0,1,0-.71,0.52,0.52,0,0,1,.18-0.19,1.74,1.74,0,0,1,.16-0.38,2.72,2.72,0,0,1,.38-0.29,1,1,0,0,0,.21-0.35,1.29,1.29,0,0,1,.33-0.38,9.73,9.73,0,0,1,.11,1.43,9.85,9.85,0,0,1-.32,2.45,1.3,1.3,0,0,1-.51-0.29h0Z" transform="translate(-251.58 -554.44)"/></svg>