<svg id="图层_1" data-name="图层 1" xmlns="http://www.w3.org/2000/svg" viewBox="0 0 21.2 19.55"><defs><style>.cls-1,.cls-3{fill:#2349b6;}.cls-2{fill:#fefefe;}.cls-3{stroke:#fff;stroke-miterlimit:10;stroke-width:0.37px;}</style></defs><title>wechat</title><path class="cls-1" d="M86.21,645.83l1.63-3.19a5.3,5.3,0,0,1-1.32-3.45c0-3.28,3.14-5.93,7-5.93s7,2.65,7,5.93-3.15,5.92-7,5.92a8.15,8.15,0,0,1-3-.58Z" transform="translate(-86.21 -633.26)"/><circle class="cls-2" cx="10.03" cy="4.57" r="0.95"/><circle class="cls-2" cx="4.57" cy="4.56" r="0.95"/><path class="cls-3" d="M107.05,652.51l-1.62-3.19a5.27,5.27,0,0,0,1.31-3.45c0-3.27-3.14-5.93-7-5.93s-7,2.66-7,5.93,3.14,5.93,7,5.93a8,8,0,0,0,3-.59Z" transform="translate(-86.21 -633.26)"/><circle class="cls-2" cx="10.82" cy="11.25" r="0.95"/><circle class="cls-2" cx="16.28" cy="11.25" r="0.95"/></svg>